<svg version="1.1" id="Layer_1" xmlns="http://www.w3.org/2000/svg" xmlns:xlink="http://www.w3.org/1999/xlink" x="0px" y="0px"
	 width="100%" viewBox="0 0 1024 1024" enable-background="new 0 0 1024 1024" xml:space="preserve">
<path fill="#FFFFFF" opacity="1.000000" stroke="none" 
	d="
M1025.000000,547.000000 
	C1025.000000,706.300354 1025.000000,865.600647 1025.000000,1024.950439 
	C683.770386,1024.950439 342.540802,1024.950439 1.000000,1024.950439 
	C1.000000,851.306580 1.000000,677.612976 1.387787,503.541565 
	C2.512748,506.613190 3.537755,510.029419 3.939739,513.517456 
	C6.301530,534.010925 11.649298,553.813416 18.706287,573.070557 
	C28.343416,599.368408 41.560387,623.819397 58.491875,646.268066 
	C74.086090,666.943604 92.354248,684.935364 112.123695,701.499573 
	C113.255905,702.448242 115.113960,702.530518 116.722504,703.476257 
	C116.886490,717.335266 116.962181,730.734070 116.624496,744.144836 
	C110.919304,744.773987 105.599182,745.211731 100.340912,746.041504 
	C83.430511,748.710144 66.523605,751.413818 49.665398,754.387695 
	C46.820320,754.889526 44.223278,756.797485 41.511635,758.055725 
	C41.522758,758.730103 41.533886,759.404480 41.545010,760.078796 
	C44.610493,761.376709 47.565022,763.275391 50.761166,763.865662 
	C62.861046,766.100037 74.972237,768.730713 87.200378,769.729553 
	C128.356277,773.091187 169.532181,776.418823 210.761536,778.609741 
	C250.006989,780.695312 289.322083,781.647095 328.619293,782.535583 
	C372.763947,783.533630 416.925659,784.581421 461.074951,784.399048 
	C545.555420,784.049866 630.038269,783.219910 714.508911,781.879211 
	C783.976135,780.776550 853.381531,777.664734 922.546326,770.741699 
	C937.086365,769.286316 951.497314,766.435547 965.909546,763.897339 
	C968.921509,763.366943 971.676697,761.378174 975.353027,759.693604 
	C969.556458,753.636658 962.587830,753.948730 956.559265,751.462952 
	C960.569702,742.634827 961.312805,733.825867 956.677612,724.984802 
	C956.270752,724.208801 956.594421,722.801147 957.009705,721.881531 
	C960.578247,713.979919 960.419983,706.129517 957.202393,698.151062 
	C956.669373,696.829224 956.683350,694.905029 957.234985,693.591003 
	C960.293213,686.307068 960.158325,679.107544 957.782959,671.658752 
	C957.060852,669.394470 956.971069,666.460144 957.773254,664.264343 
	C960.365173,657.169983 960.420227,650.316833 957.533569,643.354736 
	C957.001160,642.070740 956.353943,640.298157 956.827393,639.219910 
	C959.999451,631.995483 960.945679,624.647949 958.367065,617.208740 
	C959.346375,616.700073 959.759827,616.380798 960.225037,616.258667 
	C994.541016,607.244263 1015.509644,585.398804 1023.274353,550.798828 
	C1023.572449,549.470337 1024.412476,548.263550 1025.000000,547.000000 
z"/>
<path fill="#FFFFFF" opacity="1.000000" stroke="none" 
	d="
M0.999997,445.000000 
	C1.000000,297.035095 1.000000,149.070190 1.000000,1.052638 
	C342.217316,1.052638 683.434631,1.052638 1025.000000,1.052638 
	C1025.000000,105.358902 1025.000000,209.718201 1024.636475,314.402191 
	C1022.648804,308.879211 1021.024597,303.031525 1019.305603,296.842773 
	C1000.656982,306.430756 982.790039,315.616852 964.923035,324.802948 
	C964.680725,324.323303 964.438416,323.843689 964.196106,323.364075 
	C980.691528,311.117767 997.187012,298.871490 1014.139343,286.286041 
	C998.328430,261.774963 977.074036,246.938934 948.225586,245.186035 
	C917.755371,243.334625 893.156555,255.288208 874.606018,279.553070 
	C872.869812,281.824127 871.414551,283.546326 867.901917,283.542267 
	C751.585815,283.408417 635.269592,283.438721 518.953369,283.428894 
	C516.631226,283.428711 514.309143,283.238525 511.983459,282.761627 
	C511.449707,281.217255 511.194550,279.776093 510.347809,278.920319 
	C499.047638,267.499939 488.021149,255.774353 476.211639,244.901199 
	C461.633667,231.479019 444.739838,221.115677 427.343201,211.837769 
	C404.737640,199.781845 380.805450,191.062851 355.754211,185.293350 
	C335.795563,180.696716 315.674561,178.084122 295.230194,178.055847 
	C287.272919,178.044830 279.295685,178.426010 271.361694,179.057556 
	C260.812469,179.897278 250.055786,180.113113 239.821854,182.475433 
	C223.742783,186.187012 207.867523,190.990097 192.191620,196.191833 
	C167.450699,204.401611 145.057693,217.288742 123.686096,232.101761 
	C101.082840,247.768448 81.732071,266.935211 64.682663,288.247528 
	C49.425766,307.319122 36.874313,328.251282 27.037228,350.760681 
	C14.260281,379.997131 5.511607,410.224915 2.918494,442.125488 
	C2.836915,443.129028 1.664091,444.043823 0.999997,445.000000 
z"/>
<path fill="#F0F0F0" opacity="1.000000" stroke="none" 
	d="
M0.999997,445.468658 
	C1.664091,444.043823 2.836915,443.129028 2.918494,442.125488 
	C5.511607,410.224915 14.260281,379.997131 27.037228,350.760681 
	C36.874313,328.251282 49.425766,307.319122 64.682663,288.247528 
	C81.732071,266.935211 101.082840,247.768448 123.686096,232.101761 
	C145.057693,217.288742 167.450699,204.401611 192.191620,196.191833 
	C207.867523,190.990097 223.742783,186.187012 239.821854,182.475433 
	C250.055786,180.113113 260.812469,179.897278 271.361694,179.057556 
	C279.295685,178.426010 287.272919,178.044830 295.230194,178.055847 
	C315.674561,178.084122 335.795563,180.696716 355.754211,185.293350 
	C380.805450,191.062851 404.737640,199.781845 427.343201,211.837769 
	C444.739838,221.115677 461.633667,231.479019 476.211639,244.901199 
	C488.021149,255.774353 499.047638,267.499939 510.347809,278.920319 
	C511.194550,279.776093 511.449707,281.217255 511.583679,282.898193 
	C509.794647,283.312988 508.401825,283.215820 506.928986,282.712219 
	C505.036407,281.870697 503.224457,281.058594 501.411163,281.055664 
	C457.787689,280.984985 414.164032,281.001007 370.540436,281.001099 
	C289.287323,281.001221 208.034210,280.999237 126.781090,281.014343 
	C125.021011,281.014679 123.260971,281.210632 120.639084,281.366577 
	C123.921265,282.752533 126.047356,283.650330 127.927162,284.755310 
	C121.377747,288.331329 117.290306,293.496613 117.072060,300.665527 
	C116.724007,312.097565 117.024910,323.549347 116.957764,335.453857 
	C116.869682,456.126007 116.876526,576.337097 116.870529,696.548218 
	C116.870422,698.704163 116.716415,700.860107 116.634216,703.016052 
	C115.113960,702.530518 113.255905,702.448242 112.123695,701.499573 
	C92.354248,684.935364 74.086090,666.943604 58.491875,646.268066 
	C41.560387,623.819397 28.343416,599.368408 18.706287,573.070557 
	C11.649298,553.813416 6.301530,534.010925 3.939739,513.517456 
	C3.537755,510.029419 2.512748,506.613190 1.387787,503.081879 
	C1.000000,483.979095 1.000000,464.958221 0.999997,445.468658 
z"/>
<path fill="#020202" opacity="1.000000" stroke="none" 
	d="
M117.051399,334.992798 
	C117.024910,323.549347 116.724007,312.097565 117.072060,300.665527 
	C117.290306,293.496613 121.377747,288.331329 128.340393,284.675812 
	C131.787964,284.022888 134.575897,283.337372 137.364059,283.336456 
	C255.592865,283.297791 373.821686,283.322754 492.050507,283.325684 
	C497.036652,283.325806 502.022827,283.190765 507.008972,283.118652 
	C508.401825,283.215820 509.794647,283.312988 511.587250,283.273560 
	C514.309143,283.238525 516.631226,283.428711 518.953369,283.428894 
	C635.269592,283.438721 751.585815,283.408417 867.901917,283.542267 
	C871.414551,283.546326 872.869812,281.824127 874.606018,279.553070 
	C893.156555,255.288208 917.755371,243.334625 948.225586,245.186035 
	C977.074036,246.938934 998.328430,261.774963 1014.139343,286.286041 
	C997.187012,298.871490 980.691528,311.117767 964.196106,323.364075 
	C964.438416,323.843689 964.680725,324.323303 964.923035,324.802948 
	C982.790039,315.616852 1000.656982,306.430756 1019.305603,296.842773 
	C1021.024597,303.031525 1022.648804,308.879211 1024.636475,314.863464 
	C1025.000000,323.020905 1025.000000,331.041809 1024.638550,339.666718 
	C1022.802673,345.885620 1021.322815,351.499054 1019.855713,357.115875 
	C1018.745361,361.367004 1016.781494,363.555908 1011.612671,363.320251 
	C999.904236,362.786499 988.154907,363.152283 976.422180,363.152283 
	C976.387390,363.376862 976.352539,363.601471 976.317749,363.826050 
	C988.605286,365.960663 1000.892822,368.095245 1013.760986,370.330688 
	C1012.722961,372.055695 1012.141113,373.417084 1011.218323,374.483398 
	C1008.224426,377.942841 1008.514587,380.839874 1010.913574,384.925446 
	C1014.914429,391.739075 1017.943542,399.161957 1020.954834,406.503479 
	C1022.728577,410.827850 1023.679199,415.489868 1025.000000,420.000000 
	C1025.000000,427.020966 1025.000000,434.041901 1024.652832,441.708618 
	C1021.863892,455.511353 1018.249817,468.216034 1009.782410,479.078003 
	C1008.973572,478.650696 1008.480957,478.315125 1007.994934,477.987915 
	C1008.001526,477.996216 1008.016296,478.011566 1008.078857,477.657227 
	C1002.527222,468.262970 993.885071,462.578369 985.193176,457.109192 
	C964.045349,443.802490 941.041992,434.336853 917.901184,424.834839 
	C917.921143,423.905823 917.923584,423.375366 917.966919,422.491028 
	C906.347107,415.762085 894.686401,409.387024 882.718262,402.841553 
	C877.267273,400.085144 872.123779,397.499115 866.656250,394.750122 
	C869.213257,390.726410 870.995605,387.098114 873.547241,384.131409 
	C876.260742,380.976471 876.002014,378.553955 873.737671,375.371216 
	C871.156372,371.742859 868.512268,367.957916 866.960022,363.839783 
	C863.478882,354.603882 860.656738,345.119568 857.327515,335.011505 
	C856.110107,335.011505 853.978455,335.011475 851.846863,335.011505 
	C750.703857,335.012360 649.560852,335.008820 548.417847,335.015106 
	C405.951355,335.023956 263.484863,335.040100 120.621971,335.035950 
	C119.167503,335.010101 118.109451,335.001434 117.051399,334.992798 
M230.581085,305.144196 
	C226.993683,299.183167 220.253693,296.847107 215.611877,299.955872 
	C210.514420,303.369812 208.718704,309.300354 211.263000,314.318665 
	C213.674805,319.075714 219.990021,321.451355 224.979340,319.478485 
	C230.048538,317.473969 232.522980,311.747803 230.581085,305.144196 
M150.882172,315.380707 
	C155.948242,320.557007 162.879379,321.629608 166.485550,317.795380 
	C170.902359,313.099243 171.235931,306.761108 167.320358,301.933197 
	C164.326813,298.242157 158.777344,297.465454 154.336456,300.115936 
	C149.007462,303.296478 147.653839,308.338440 150.882172,315.380707 
M199.656036,313.609100 
	C199.779587,311.962006 199.944641,310.316772 200.018738,308.667450 
	C200.224365,304.090118 197.717712,300.964203 193.908249,299.265717 
	C189.668198,297.375183 184.017853,299.469879 181.468307,303.184601 
	C178.365921,307.704834 179.655472,315.288788 184.058426,318.417175 
	C188.957245,321.897919 195.393616,320.176117 199.656036,313.609100 
M923.232117,424.122314 
	C922.999817,424.299805 922.767456,424.477325 922.535095,424.654755 
	C922.870056,424.610229 923.204956,424.565704 923.232117,424.122314 
z"/>
<path fill="#020202" opacity="1.000000" stroke="none" 
	d="
M1025.000000,546.531372 
	C1024.412476,548.263550 1023.572449,549.470337 1023.274353,550.798828 
	C1015.509644,585.398804 994.541016,607.244263 960.225037,616.258667 
	C959.759827,616.380798 959.346375,616.700073 958.367065,617.208740 
	C960.945679,624.647949 959.999451,631.995483 956.827393,639.219910 
	C956.353943,640.298157 957.001160,642.070740 957.533569,643.354736 
	C960.420227,650.316833 960.365173,657.169983 957.773254,664.264343 
	C956.971069,666.460144 957.060852,669.394470 957.782959,671.658752 
	C960.158325,679.107544 960.293213,686.307068 957.234985,693.591003 
	C956.683350,694.905029 956.669373,696.829224 957.202393,698.151062 
	C960.419983,706.129517 960.578247,713.979919 957.009705,721.881531 
	C956.594421,722.801147 956.270752,724.208801 956.677612,724.984802 
	C961.312805,733.825867 960.569702,742.634827 956.559265,751.462952 
	C962.587830,753.948730 969.556458,753.636658 975.353027,759.693604 
	C971.676697,761.378174 968.921509,763.366943 965.909546,763.897339 
	C951.497314,766.435547 937.086365,769.286316 922.546326,770.741699 
	C853.381531,777.664734 783.976135,780.776550 714.508911,781.879211 
	C630.038269,783.219910 545.555420,784.049866 461.074951,784.399048 
	C416.925659,784.581421 372.763947,783.533630 328.619293,782.535583 
	C289.322083,781.647095 250.006989,780.695312 210.761536,778.609741 
	C169.532181,776.418823 128.356277,773.091187 87.200378,769.729553 
	C74.972237,768.730713 62.861046,766.100037 50.761166,763.865662 
	C47.565022,763.275391 44.610493,761.376709 41.545010,760.078796 
	C41.533886,759.404480 41.522758,758.730103 41.511635,758.055725 
	C44.223278,756.797485 46.820320,754.889526 49.665398,754.387695 
	C66.523605,751.413818 83.430511,748.710144 100.340912,746.041504 
	C105.599182,745.211731 110.919304,744.773987 116.713852,744.352966 
	C117.425507,744.782227 117.682434,744.934082 118.033302,745.352051 
	C122.396294,754.405640 129.658157,758.000305 139.111206,757.999695 
	C378.331909,757.984192 617.552612,757.950684 856.773254,758.086609 
	C868.342590,758.093140 877.293518,755.005676 881.996033,743.690063 
	C882.106628,743.424011 882.504761,743.277466 883.208008,743.086426 
	C897.920288,744.458984 912.193237,745.820312 926.901855,747.223145 
	C923.749207,739.939697 924.696716,733.528137 927.034607,727.053833 
	C927.631287,725.401428 927.794495,723.155762 927.168884,721.573242 
	C924.267395,714.234131 924.309875,707.056824 926.960510,699.658936 
	C927.652649,697.727051 927.716553,695.109009 926.996155,693.213928 
	C924.256348,686.007202 924.321533,679.007690 926.862976,671.770630 
	C927.596741,669.681274 927.679504,666.917725 926.961060,664.844360 
	C924.393494,657.434570 924.094788,650.231812 927.279419,642.961670 
	C927.774231,641.831970 928.414124,640.238892 927.990845,639.317566 
	C924.660828,632.068542 924.102112,624.635986 925.860107,618.280518 
	C915.690369,613.455383 905.835510,609.212097 896.428345,604.138611 
	C891.540955,601.502686 887.444763,597.399719 882.869629,593.649902 
	C872.335938,583.078796 865.814819,570.506958 861.481079,556.985352 
	C858.799011,556.985352 856.511841,556.985352 854.224670,556.985352 
	C734.433105,556.983765 614.641541,556.982544 494.849976,556.977173 
	C493.351501,556.977112 491.818268,557.119995 490.360901,556.860779 
	C485.421478,555.982300 483.072968,551.374390 484.922424,546.679260 
	C486.640778,542.316956 490.379211,542.999451 493.792572,542.998840 
	C613.084290,542.976746 732.376038,542.977051 851.667786,542.974121 
	C853.000610,542.974121 854.513428,543.370483 855.619690,542.869507 
	C856.928894,542.276611 858.766663,540.979614 858.855957,539.866028 
	C859.465576,532.265564 859.675720,524.633118 860.157593,516.955200 
	C860.196167,516.927917 860.091980,516.956360 859.519897,516.974854 
	C737.387390,516.972534 615.722717,516.980347 494.058014,516.987671 
	C493.224731,516.987732 492.386810,517.036926 491.558899,516.968506 
	C487.007233,516.592163 483.881866,513.363342 484.042389,509.239624 
	C484.205261,505.055450 486.737701,502.987823 491.860840,502.987335 
	C613.025574,502.975983 734.190247,502.958771 855.354919,503.064270 
	C858.192993,503.066742 861.029846,504.468323 863.363892,505.084412 
	C866.834595,499.067078 870.535828,492.447540 874.454834,485.959564 
	C875.940308,483.500275 875.877563,481.886780 874.075745,479.361084 
	C863.203796,464.121796 858.115540,447.079590 859.614502,428.398132 
	C890.257385,434.320557 919.968018,442.127869 949.110474,452.018250 
	C968.935547,458.746460 988.883423,465.292419 1006.031067,477.953949 
	C1006.468445,478.276947 1007.344727,478.005707 1008.016296,478.011566 
	C1008.016296,478.011566 1008.001526,477.996216 1007.673706,478.274048 
	C1007.939209,479.035126 1008.532593,479.518372 1008.944397,480.342194 
	C1008.967407,482.364990 1008.631470,484.399689 1009.462219,485.673462 
	C1015.926514,495.585632 1020.868164,506.093689 1023.188965,517.769775 
	C1023.481506,519.241638 1024.381470,520.592896 1025.000000,522.000000 
	C1025.000000,530.020935 1025.000000,538.041809 1025.000000,546.531372 
z"/>
<path fill="#F6F6F6" opacity="1.000000" stroke="none" 
	d="
M1025.000000,419.531342 
	C1023.679199,415.489868 1022.728577,410.827850 1020.954834,406.503479 
	C1017.943542,399.161957 1014.914429,391.739075 1010.913574,384.925446 
	C1008.514587,380.839874 1008.224426,377.942841 1011.218323,374.483398 
	C1012.141113,373.417084 1012.722961,372.055695 1013.760986,370.330688 
	C1000.892822,368.095245 988.605286,365.960663 976.317749,363.826050 
	C976.352539,363.601471 976.387390,363.376862 976.422180,363.152283 
	C988.154907,363.152283 999.904236,362.786499 1011.612671,363.320251 
	C1016.781494,363.555908 1018.745361,361.367004 1019.855713,357.115875 
	C1021.322815,351.499054 1022.802673,345.885620 1024.638550,340.135376 
	C1025.000000,366.354218 1025.000000,392.708466 1025.000000,419.531342 
z"/>
<path fill="#F7F7F7" opacity="1.000000" stroke="none" 
	d="
M1025.000000,521.531372 
	C1024.381470,520.592896 1023.481506,519.241638 1023.188965,517.769775 
	C1020.868164,506.093689 1015.926514,495.585632 1009.462219,485.673462 
	C1008.631470,484.399689 1008.967407,482.364990 1009.210083,480.386780 
	C1009.804321,479.783783 1009.951477,479.476776 1010.098572,479.169769 
	C1018.249817,468.216034 1021.863892,455.511353 1024.652832,442.177185 
	C1025.000000,468.354218 1025.000000,494.708466 1025.000000,521.531372 
z"/>
<path fill="#1B1B1A" opacity="1.000000" stroke="none" 
	d="
M117.987381,745.004700 
	C117.682434,744.934082 117.425507,744.782227 117.127228,744.341003 
	C116.962181,730.734070 116.886490,717.335266 116.722504,703.476257 
	C116.716415,700.860107 116.870422,698.704163 116.870529,696.548218 
	C116.876526,576.337097 116.869682,456.126007 116.957764,335.453827 
	C118.109451,335.001434 119.167503,335.010101 120.615257,335.498718 
	C121.004219,469.077118 121.003479,602.175537 121.002724,735.273987 
	C121.002716,736.606628 121.349678,738.064209 120.925095,739.244080 
	C120.201019,741.256165 118.992447,743.093811 117.987381,745.004700 
z"/>
<path fill="#FBFBFA" opacity="1.000000" stroke="none" 
	d="
M506.928986,282.712219 
	C502.022827,283.190765 497.036652,283.325806 492.050507,283.325684 
	C373.821686,283.322754 255.592865,283.297791 137.364059,283.336456 
	C134.575897,283.337372 131.787964,284.022888 128.586685,284.468597 
	C126.047356,283.650330 123.921265,282.752533 120.639084,281.366577 
	C123.260971,281.210632 125.021011,281.014679 126.781090,281.014343 
	C208.034210,280.999237 289.287323,281.001221 370.540436,281.001099 
	C414.164032,281.001007 457.787689,280.984985 501.411163,281.055664 
	C503.224457,281.058594 505.036407,281.870697 506.928986,282.712219 
z"/>
<path fill="#222222" opacity="1.000000" stroke="none" 
	d="
M118.033310,745.352051 
	C118.992447,743.093811 120.201019,741.256165 120.925095,739.244080 
	C121.349678,738.064209 121.002716,736.606628 121.002724,735.273987 
	C121.003479,602.175537 121.004219,469.077118 121.011673,335.515900 
	C263.484863,335.040100 405.951355,335.023956 548.417847,335.015106 
	C649.560852,335.008820 750.703857,335.012360 851.846863,335.011505 
	C853.978455,335.011475 856.110107,335.011505 857.327515,335.011505 
	C860.656738,345.119568 863.478882,354.603882 866.960022,363.839783 
	C868.512268,367.957916 871.156372,371.742859 873.737671,375.371216 
	C876.002014,378.553955 876.260742,380.976471 873.547241,384.131409 
	C870.995605,387.098114 869.213257,390.726410 866.656250,394.750122 
	C872.123779,397.499115 877.267273,400.085144 882.641479,403.264160 
	C882.827454,405.854736 882.782715,407.852356 882.360474,410.006195 
	C875.874146,408.426086 869.765259,406.689697 862.438782,404.607239 
	C861.325073,412.746887 860.261108,420.522766 859.197144,428.298645 
	C858.115540,447.079590 863.203796,464.121796 874.075745,479.361084 
	C875.877563,481.886780 875.940308,483.500275 874.454834,485.959564 
	C870.535828,492.447540 866.834595,499.067078 863.363892,505.084412 
	C861.029846,504.468323 858.192993,503.066742 855.354919,503.064270 
	C734.190247,502.958771 613.025574,502.975983 491.860840,502.987335 
	C486.737701,502.987823 484.205261,505.055450 484.042389,509.239624 
	C483.881866,513.363342 487.007233,516.592163 491.558899,516.968506 
	C492.386810,517.036926 493.224731,516.987732 494.058014,516.987671 
	C615.722717,516.980347 737.387390,516.972534 859.526001,516.982178 
	C860.000000,516.999634 860.014648,517.010986 860.014648,517.010986 
	C859.675720,524.633118 859.465576,532.265564 858.855957,539.866028 
	C858.766663,540.979614 856.928894,542.276611 855.619690,542.869507 
	C854.513428,543.370483 853.000610,542.974121 851.667786,542.974121 
	C732.376038,542.977051 613.084290,542.976746 493.792572,542.998840 
	C490.379211,542.999451 486.640778,542.316956 484.922424,546.679260 
	C483.072968,551.374390 485.421478,555.982300 490.360901,556.860779 
	C491.818268,557.119995 493.351501,556.977112 494.849976,556.977173 
	C614.641541,556.982544 734.433105,556.983765 854.224670,556.985352 
	C856.511841,556.985352 858.799011,556.985352 861.481079,556.985352 
	C865.814819,570.506958 872.335938,583.078796 882.823547,594.119263 
	C882.855530,644.290527 882.812195,693.682922 882.768799,743.075195 
	C882.504761,743.277466 882.106628,743.424011 881.996033,743.690063 
	C877.293518,755.005676 868.342590,758.093140 856.773254,758.086609 
	C617.552612,757.950684 378.331909,757.984192 139.111206,757.999695 
	C129.658157,758.000305 122.396294,754.405640 118.033310,745.352051 
M354.500000,729.020569 
	C385.659058,729.019226 416.818085,729.019592 447.977142,729.015198 
	C455.393311,729.014160 456.990265,727.426147 456.990723,719.948547 
	C456.997559,605.308533 456.999207,490.668549 456.994507,376.028534 
	C456.994202,368.621826 454.470673,366.027008 447.211670,366.026428 
	C350.734100,366.018951 254.256546,366.020691 157.778976,366.034668 
	C150.508560,366.035706 148.009689,368.614349 148.009079,376.050385 
	C147.999802,490.690399 147.998138,605.330444 148.002792,719.970459 
	C148.003098,727.432251 149.597412,729.012024 157.045685,729.012756 
	C222.530457,729.019043 288.015228,729.018921 354.500000,729.020569 
M630.500000,582.811829 
	C586.026917,582.799011 541.553833,582.785950 497.080750,582.774658 
	C495.082001,582.774109 493.076752,582.690063 491.085876,582.819397 
	C487.341858,583.062561 484.542694,584.800049 484.328613,588.773132 
	C484.106567,592.893860 486.025421,595.874939 490.434875,596.530273 
	C492.069366,596.773315 493.755432,596.717041 495.417969,596.717285 
	C614.512268,596.731873 733.606628,596.739075 852.700928,596.738525 
	C854.196350,596.738464 855.740662,596.849854 857.177673,596.529724 
	C861.004028,595.677246 863.431091,593.525635 863.169556,589.229126 
	C862.908936,584.947144 860.439209,582.997803 856.362366,582.866455 
	C853.200439,582.764587 850.033691,582.795837 846.869080,582.795959 
	C775.079407,582.798218 703.289673,582.804321 630.500000,582.811829 
M722.500000,636.189026 
	C766.824097,636.193909 811.148315,636.171448 855.472290,636.252380 
	C859.263184,636.259277 862.098267,635.329834 862.991150,631.358337 
	C864.223511,625.876343 861.112671,622.771057 854.588989,622.771606 
	C734.781006,622.782471 614.972961,622.791199 495.164978,622.802307 
	C493.665619,622.802429 492.162994,622.768799 490.667542,622.852478 
	C486.364502,623.093323 484.387848,625.740662 484.338379,629.715271 
	C484.289032,633.674683 486.660004,635.795044 490.551636,636.098572 
	C492.541046,636.253784 494.548126,636.209473 496.547241,636.209412 
	C571.531494,636.206238 646.515747,636.197693 722.500000,636.189026 
M831.500000,709.023132 
	C839.826416,709.021240 848.152771,709.014038 856.479187,709.019714 
	C860.747375,709.022644 862.979248,706.945923 863.012390,702.639893 
	C863.037964,699.309509 863.043396,695.978699 863.016724,692.648376 
	C862.969238,686.711426 861.266724,685.011536 855.237061,685.004944 
	C836.419434,684.984558 817.601746,684.995911 798.784119,684.996704 
	C782.668945,684.997437 782.668945,684.998535 782.991577,700.953491 
	C783.115906,707.103088 784.984070,709.008850 791.032898,709.018005 
	C804.188599,709.038025 817.344299,709.023499 831.500000,709.023132 
M494.731262,376.832214 
	C492.487152,376.832214 490.243042,376.832214 488.003418,376.832214 
	C488.003418,390.719452 488.003418,404.147827 488.003418,417.957336 
	C489.919952,417.957336 492.256927,418.649933 493.050629,417.836578 
	C496.359558,414.445709 499.069672,418.279236 501.940735,418.047333 
	C505.432465,417.765289 509.424927,417.459930 512.187134,415.632507 
	C518.407288,411.517487 519.644470,400.793732 515.471741,393.843475 
	C512.099487,388.226532 505.427124,386.698700 497.803955,389.787964 
	C497.204407,390.030914 496.578308,390.208313 495.324951,390.632843 
	C495.324951,386.000610 495.324951,381.718292 494.731262,376.832214 
M663.879395,476.335907 
	C665.330811,476.241638 666.782227,476.147339 668.163391,476.057648 
	C668.163391,466.159821 668.163391,456.612305 668.163391,446.316284 
	C665.138245,446.895447 662.582642,447.384766 658.900452,448.089722 
	C653.305115,444.501617 646.656616,445.083344 641.949097,450.535065 
	C636.921936,456.356934 637.050781,466.951782 642.218689,472.702515 
	C646.888367,477.898865 653.210999,478.251709 659.071350,474.036896 
	C660.577637,474.869080 661.833557,475.562897 663.879395,476.335907 
M571.440369,448.643066 
	C565.327332,444.396698 558.782654,445.166595 554.247009,450.665619 
	C549.271301,456.698242 549.528809,467.098572 554.793335,472.731140 
	C559.681519,477.961090 566.258301,478.182861 571.044373,474.447021 
	C574.904785,475.307159 577.636780,475.915863 580.725952,476.604156 
	C580.725952,466.050995 580.725952,456.532532 580.725952,445.314667 
	C577.237976,446.822632 574.613953,447.957062 571.440369,448.643066 
M500.690430,476.895538 
	C505.492310,477.015625 509.878296,476.058685 513.420288,472.045197 
	C512.342834,470.501923 511.346924,469.075470 510.401642,467.721527 
	C501.308136,471.600616 496.261108,470.250916 494.243317,463.227356 
	C501.096130,463.227356 507.824005,463.227356 514.475403,463.227356 
	C515.423279,455.077942 512.055115,448.929810 505.742249,446.699036 
	C499.420349,444.465057 492.328491,446.816345 488.605011,452.440186 
	C482.148987,462.191284 487.400696,475.611359 500.690430,476.895538 
M726.886047,461.494293 
	C726.243347,451.862610 720.353333,445.864990 711.594177,445.923126 
	C703.000916,445.980164 696.002625,452.603424 695.910278,460.766388 
	C695.807068,469.892639 701.759949,476.416779 710.687439,476.961761 
	C719.432800,477.495636 725.779358,471.761719 726.886047,461.494293 
M612.361267,463.252899 
	C612.361267,457.826904 612.361267,452.400909 612.361267,446.994690 
	C609.262451,446.994690 606.825684,446.994690 604.733643,446.994690 
	C604.733643,454.115692 604.269897,460.963287 604.855774,467.719818 
	C605.526855,475.457916 613.216309,479.241455 620.015869,475.693359 
	C621.318604,475.013611 622.490295,474.082520 623.753906,473.246521 
	C625.478088,478.076599 628.895630,475.790924 631.937622,475.831573 
	C631.937622,465.978241 631.937622,456.541016 631.937622,446.871460 
	C629.336304,446.871460 626.915344,446.871460 624.058472,446.871460 
	C624.058472,452.399353 623.929260,457.687531 624.101135,462.965851 
	C624.228455,466.875916 622.956360,469.489899 618.809326,469.953400 
	C614.582703,470.425812 612.697876,468.152985 612.361267,463.252899 
M545.979248,417.961304 
	C547.565247,417.961304 549.151245,417.961304 550.885254,417.961304 
	C550.885254,407.968689 550.885254,398.538239 550.885254,388.732635 
	C548.375305,388.577179 546.002319,388.430206 543.126892,388.252106 
	C543.126892,393.971893 542.967651,399.104095 543.175842,404.221344 
	C543.351929,408.550079 541.914612,411.602600 537.341187,411.789520 
	C532.664856,411.980682 531.680969,408.506561 531.636780,404.689240 
	C531.575806,399.421051 531.621521,394.151642 531.621521,388.876007 
	C528.479553,388.876007 526.121826,388.876007 523.843994,388.876007 
	C523.843994,395.763000 523.571350,402.243805 523.911194,408.692291 
	C524.363098,417.266937 532.169373,421.274475 539.645752,417.026672 
	C540.754395,416.396790 541.778320,415.617767 542.636047,415.044952 
	C543.588806,416.143707 544.363586,417.037140 545.979248,417.961304 
M666.787659,389.008942 
	C665.499329,389.714294 664.210999,390.419647 662.922729,391.125000 
	C663.008728,390.638947 663.094666,390.152893 663.180664,389.666840 
	C660.637695,389.068939 658.094727,388.471039 655.174561,387.784454 
	C655.174561,398.447205 655.174561,408.021179 655.174561,417.767639 
	C657.734131,417.767639 659.987732,417.767639 662.775330,417.767639 
	C662.775330,412.094971 662.805908,406.633362 662.765625,401.172272 
	C662.733887,396.866425 665.016296,394.512451 669.105896,394.432220 
	C673.238525,394.351135 674.262634,397.356171 674.257690,400.902496 
	C674.249878,406.517792 674.255615,412.133057 674.255615,417.666260 
	C677.206055,417.666260 679.462280,417.666260 681.714905,417.666260 
	C681.890259,416.889130 682.087708,416.417755 682.089417,415.945648 
	C682.109253,410.448547 682.202759,404.948883 682.074646,399.454651 
	C681.856506,390.100922 676.905457,386.508179 666.787659,389.008942 
M757.702454,468.729218 
	C756.658752,469.513550 755.615112,470.297913 754.611694,471.051971 
	C760.071289,477.245575 768.596558,479.062988 774.274719,474.768860 
	C776.665466,472.960785 778.552490,469.113464 778.651428,466.126312 
	C778.718323,464.105072 775.563354,461.522919 773.301758,460.010895 
	C771.184570,458.595428 768.254089,458.458862 765.866089,457.358856 
	C764.746887,456.843353 764.062012,455.384949 763.180298,454.353882 
	C764.362549,453.585205 765.572632,452.147125 766.721069,452.194763 
	C768.773132,452.279938 770.761719,453.591309 772.827271,453.755066 
	C774.270508,453.869446 776.143494,453.278717 777.138000,452.303131 
	C777.617737,451.832458 776.947571,449.235107 776.054749,448.482300 
	C771.833984,444.923431 763.025513,445.131805 758.752991,448.593750 
	C753.973633,452.466400 754.451172,459.292969 759.944092,462.195190 
	C762.389587,463.487274 765.357605,463.763062 767.885681,464.936798 
	C769.319641,465.602570 770.343506,467.151733 771.552063,468.302979 
	C769.904541,469.109436 768.288574,470.469025 766.600586,470.565399 
	C764.942383,470.660065 763.227295,469.420990 761.505615,468.864990 
	C760.435852,468.519531 759.307373,468.355896 757.702454,468.729218 
M534.156677,476.154053 
	C534.798279,475.750610 535.777344,475.496155 536.031006,474.921478 
	C540.087158,465.732941 544.050598,456.503510 548.073425,447.194916 
	C540.305237,445.979279 540.345093,445.994049 537.998108,452.322937 
	C536.404785,456.619476 534.680237,460.867371 532.645630,466.082214 
	C529.995239,459.036560 527.736877,453.033234 525.475098,447.020691 
	C522.705994,447.020691 519.977051,447.020691 516.920776,447.020691 
	C520.794250,456.046722 524.543640,464.544586 528.065796,473.135590 
	C529.131287,475.734528 530.594238,476.844788 534.156677,476.154053 
M589.168396,390.833038 
	C587.968872,395.958557 592.292786,394.882904 595.159912,395.599884 
	C595.159912,403.101349 595.159912,410.358276 595.159912,417.701447 
	C597.763184,417.701447 600.002502,417.701447 602.899963,417.701447 
	C602.899963,410.084412 602.899963,402.718414 602.899963,395.449890 
	C605.299988,395.168396 607.038391,394.964478 608.570435,394.784790 
	C608.570435,392.515167 608.570435,390.630371 608.570435,388.677002 
	C606.493103,388.519379 604.736755,388.386108 602.646423,388.227478 
	C602.646423,385.637268 602.646423,383.393494 602.646423,381.015503 
	C599.876892,381.015503 597.491211,381.015503 594.795654,381.015503 
	C594.795654,383.626556 594.795654,385.894836 594.795654,387.462341 
	C592.612183,388.461578 590.949097,389.222626 589.168396,390.833038 
M674.232971,453.569458 
	C675.799622,453.719910 677.366333,453.870331 679.092896,454.036133 
	C679.092896,461.547607 679.092896,468.662903 679.092896,475.950653 
	C681.825256,475.950653 684.344055,475.950653 687.203735,475.950653 
	C687.203735,468.299927 687.203735,461.069336 687.203735,453.864166 
	C689.176453,453.740479 690.799622,453.638702 692.826233,453.511597 
	C692.943542,451.287354 693.051147,449.247589 693.173462,446.928528 
	C690.951599,446.802979 689.192688,446.703613 687.214355,446.591827 
	C687.034607,444.017761 686.867737,441.627960 686.709900,439.368347 
	C683.930481,439.368347 681.563477,439.368347 679.227478,439.368347 
	C679.064148,442.069946 678.927979,444.322357 678.797546,446.480316 
	C676.740967,446.765839 675.153381,446.986267 673.350159,447.236633 
	C673.471313,449.331390 673.574768,451.119385 674.232971,453.569458 
M583.284851,417.870361 
	C583.284851,404.251953 583.284851,390.633575 583.284851,376.916748 
	C581.044861,376.916748 578.666199,376.916748 576.282104,376.916748 
	C576.282104,390.724060 576.282104,404.104004 576.282104,418.005554 
	C578.462402,418.005554 580.409607,418.005554 583.284851,417.870361 
M740.757385,463.677795 
	C740.939880,455.443268 741.705872,454.681702 750.395874,454.200897 
	C751.198853,451.812775 752.012573,449.392487 752.826355,446.972198 
	C752.557312,446.474060 752.288208,445.975891 752.019104,445.477722 
	C748.253967,446.684113 744.488831,447.890503 740.800842,449.072144 
	C739.987000,444.661835 736.172058,447.110474 733.236938,446.673859 
	C733.236938,456.708954 733.236938,466.392151 733.236938,475.848145 
	C735.915100,475.848145 738.167236,475.848145 740.749268,475.848145 
	C740.749268,471.894440 740.749268,468.261444 740.757385,463.677795 
M588.862976,441.578522 
	C588.862976,452.973907 588.862976,464.369263 588.862976,475.882507 
	C591.571289,475.882507 593.809875,475.882507 596.163818,475.882507 
	C596.163818,462.118469 596.163818,448.637360 596.163818,435.082001 
	C593.619019,435.082001 591.519775,435.082001 588.852905,435.082001 
	C588.852905,437.049377 588.852905,438.826630 588.862976,441.578522 
M643.196960,388.523041 
	C641.635254,388.523041 640.073486,388.523041 638.619263,388.523041 
	C638.619263,398.738007 638.619263,408.161896 638.619263,417.658630 
	C641.308960,417.658630 643.681763,417.658630 646.306396,417.658630 
	C646.306396,408.521240 646.365234,399.723389 646.206909,390.929443 
	C646.192566,390.132141 644.781372,389.360046 643.196960,388.523041 
M567.423767,396.653961 
	C567.423767,394.053619 567.423767,391.453308 567.423767,388.689453 
	C564.553162,388.689453 562.326843,388.689453 560.039856,388.689453 
	C560.039856,398.581024 560.039856,408.154541 560.039856,417.757019 
	C562.604004,417.757019 564.865906,417.757019 567.430420,417.757019 
	C567.430420,410.866760 567.430420,404.240387 567.423767,396.653961 
M618.137573,405.254730 
	C622.220032,405.254730 626.302429,405.254730 630.590942,405.254730 
	C630.590942,402.536530 630.590942,400.492706 630.590942,398.303986 
	C624.579102,398.303986 618.856750,398.303986 613.167603,398.303986 
	C613.167603,400.708679 613.167603,402.803314 613.167603,405.268402 
	C614.694641,405.268402 615.983643,405.268402 618.137573,405.254730 
M639.884338,381.924500 
	C641.978699,381.451111 644.444275,381.470398 646.007507,380.292236 
	C646.765503,379.720947 646.468994,375.977448 645.515808,375.323792 
	C644.082642,374.341034 641.226868,374.024384 639.739685,374.831573 
	C636.927002,376.358215 637.030029,379.063629 639.884338,381.924500 
M559.073669,376.868469 
	C559.113342,377.849335 558.815002,379.469391 559.251343,379.700104 
	C561.117371,380.686829 563.265198,381.918518 565.177734,381.728241 
	C566.214722,381.625092 568.101501,378.059265 567.656494,377.427032 
	C566.544373,375.847290 564.421509,374.746368 562.488098,374.097260 
	C561.761292,373.853302 560.437561,375.387360 559.073669,376.868469 
z"/>
<path fill="#8C8B8B" opacity="1.000000" stroke="none" 
	d="
M859.614502,428.398132 
	C860.261108,420.522766 861.325073,412.746887 862.438782,404.607239 
	C869.765259,406.689697 875.874146,408.426086 882.554871,410.310608 
	C885.784180,412.002258 888.441711,413.545746 891.299622,415.372833 
	C900.294617,418.848755 909.089111,422.041077 917.883667,425.233398 
	C941.041992,434.336853 964.045349,443.802490 985.193176,457.109192 
	C993.885071,462.578369 1002.527222,468.262970 1008.078857,477.657227 
	C1007.344727,478.005707 1006.468445,478.276947 1006.031067,477.953949 
	C988.883423,465.292419 968.935547,458.746460 949.110474,452.018250 
	C919.968018,442.127869 890.257385,434.320557 859.614502,428.398132 
z"/>
<path fill="#222222" opacity="1.000000" stroke="none" 
	d="
M230.723984,305.499023 
	C232.522980,311.747803 230.048538,317.473969 224.979340,319.478485 
	C219.990021,321.451355 213.674805,319.075714 211.263000,314.318665 
	C208.718704,309.300354 210.514420,303.369812 215.611877,299.955872 
	C220.253693,296.847107 226.993683,299.183167 230.723984,305.499023 
z"/>
<path fill="#202120" opacity="1.000000" stroke="none" 
	d="
M150.643021,315.072449 
	C147.653839,308.338440 149.007462,303.296478 154.336456,300.115936 
	C158.777344,297.465454 164.326813,298.242157 167.320358,301.933197 
	C171.235931,306.761108 170.902359,313.099243 166.485550,317.795380 
	C162.879379,321.629608 155.948242,320.557007 150.643021,315.072449 
z"/>
<path fill="#202120" opacity="1.000000" stroke="none" 
	d="
M199.480484,313.973816 
	C195.393616,320.176117 188.957245,321.897919 184.058426,318.417175 
	C179.655472,315.288788 178.365921,307.704834 181.468307,303.184601 
	C184.017853,299.469879 189.668198,297.375183 193.908249,299.265717 
	C197.717712,300.964203 200.224365,304.090118 200.018738,308.667450 
	C199.944641,310.316772 199.779587,311.962006 199.480484,313.973816 
z"/>
<path fill="#F0F0F0" opacity="1.000000" stroke="none" 
	d="
M891.099182,415.089233 
	C888.441711,413.545746 885.784180,412.002258 882.932373,410.154358 
	C882.782715,407.852356 882.827454,405.854736 882.948975,403.434570 
	C894.686401,409.387024 906.347107,415.762085 917.595825,422.519531 
	C908.489014,420.297668 899.794067,417.693451 891.099182,415.089233 
z"/>
<path fill="#202120" opacity="1.000000" stroke="none" 
	d="
M891.299622,415.372833 
	C899.794067,417.693451 908.489014,420.297668 917.554993,422.873383 
	C917.923584,423.375366 917.921143,423.905823 917.901184,424.834839 
	C909.089111,422.041077 900.294617,418.848755 891.299622,415.372833 
z"/>
<path fill="#8C8B8B" opacity="1.000000" stroke="none" 
	d="
M1009.782410,479.078003 
	C1009.951477,479.476776 1009.804321,479.783783 1009.391602,480.046204 
	C1008.532593,479.518372 1007.939209,479.035126 1007.667114,478.265747 
	C1008.480957,478.315125 1008.973572,478.650696 1009.782410,479.078003 
z"/>
<path fill="#202120" opacity="1.000000" stroke="none" 
	d="
M923.385986,424.321716 
	C923.204956,424.565704 922.870056,424.610229 922.535095,424.654785 
	C922.767456,424.477325 922.999817,424.299805 923.385986,424.321716 
z"/>
<path fill="#FDFDFD" opacity="1.000000" stroke="none" 
	d="
M883.208069,743.086487 
	C882.812195,693.682922 882.855530,644.290527 882.944946,594.428833 
	C887.444763,597.399719 891.540955,601.502686 896.428345,604.138611 
	C905.835510,609.212097 915.690369,613.455383 925.860107,618.280518 
	C924.102112,624.635986 924.660828,632.068542 927.990845,639.317566 
	C928.414124,640.238892 927.774231,641.831970 927.279419,642.961670 
	C924.094788,650.231812 924.393494,657.434570 926.961060,664.844360 
	C927.679504,666.917725 927.596741,669.681274 926.862976,671.770630 
	C924.321533,679.007690 924.256348,686.007202 926.996155,693.213928 
	C927.716553,695.109009 927.652649,697.727051 926.960510,699.658936 
	C924.309875,707.056824 924.267395,714.234131 927.168884,721.573242 
	C927.794495,723.155762 927.631287,725.401428 927.034607,727.053833 
	C924.696716,733.528137 923.749207,739.939697 926.901855,747.223145 
	C912.193237,745.820312 897.920288,744.458984 883.208069,743.086487 
z"/>
<path fill="#222222" opacity="1.000000" stroke="none" 
	d="
M859.993896,516.992249 
	C860.091980,516.956360 860.196167,516.927917 860.157532,516.955200 
	C860.014648,517.010986 860.000000,516.999634 859.993896,516.992249 
z"/>
<path fill="#010101" opacity="1.000000" stroke="none" 
	d="
M354.000000,729.020630 
	C288.015228,729.018921 222.530457,729.019043 157.045685,729.012756 
	C149.597412,729.012024 148.003098,727.432251 148.002792,719.970459 
	C147.998138,605.330444 147.999802,490.690399 148.009079,376.050385 
	C148.009689,368.614349 150.508560,366.035706 157.778976,366.034668 
	C254.256546,366.020691 350.734100,366.018951 447.211670,366.026428 
	C454.470673,366.027008 456.994202,368.621826 456.994507,376.028534 
	C456.999207,490.668549 456.997559,605.308533 456.990723,719.948547 
	C456.990265,727.426147 455.393311,729.014160 447.977142,729.015198 
	C416.818085,729.019592 385.659058,729.019226 354.000000,729.020630 
M292.499939,636.151123 
	C326.237000,636.151123 359.974091,636.151123 393.569824,636.151123 
	C393.569824,569.365479 393.569824,503.264313 393.569824,437.348053 
	C321.944489,497.884155 260.366913,568.109741 194.680191,636.151184 
	C227.962616,636.151184 259.731262,636.151184 292.499939,636.151123 
z"/>
<path fill="#8B8B8B" opacity="1.000000" stroke="none" 
	d="
M631.000000,582.810791 
	C703.289673,582.804321 775.079407,582.798218 846.869080,582.795959 
	C850.033691,582.795837 853.200439,582.764587 856.362366,582.866455 
	C860.439209,582.997803 862.908936,584.947144 863.169556,589.229126 
	C863.431091,593.525635 861.004028,595.677246 857.177673,596.529724 
	C855.740662,596.849854 854.196350,596.738464 852.700928,596.738525 
	C733.606628,596.739075 614.512268,596.731873 495.417969,596.717285 
	C493.755432,596.717041 492.069366,596.773315 490.434875,596.530273 
	C486.025421,595.874939 484.106567,592.893860 484.328613,588.773132 
	C484.542694,584.800049 487.341858,583.062561 491.085876,582.819397 
	C493.076752,582.690063 495.082001,582.774109 497.080750,582.774658 
	C541.553833,582.785950 586.026917,582.799011 631.000000,582.810791 
z"/>
<path fill="#8E8E8E" opacity="1.000000" stroke="none" 
	d="
M722.000000,636.189453 
	C646.515747,636.197693 571.531494,636.206238 496.547241,636.209412 
	C494.548126,636.209473 492.541046,636.253784 490.551636,636.098572 
	C486.660004,635.795044 484.289032,633.674683 484.338379,629.715271 
	C484.387848,625.740662 486.364502,623.093323 490.667542,622.852478 
	C492.162994,622.768799 493.665619,622.802429 495.164978,622.802307 
	C614.972961,622.791199 734.781006,622.782471 854.588989,622.771606 
	C861.112671,622.771057 864.223511,625.876343 862.991150,631.358337 
	C862.098267,635.329834 859.263184,636.259277 855.472290,636.252380 
	C811.148315,636.171448 766.824097,636.193909 722.000000,636.189453 
z"/>
<path fill="#010101" opacity="1.000000" stroke="none" 
	d="
M831.000000,709.023071 
	C817.344299,709.023499 804.188599,709.038025 791.032898,709.018005 
	C784.984070,709.008850 783.115906,707.103088 782.991577,700.953491 
	C782.668945,684.998535 782.668945,684.997437 798.784119,684.996704 
	C817.601746,684.995911 836.419434,684.984558 855.237061,685.004944 
	C861.266724,685.011536 862.969238,686.711426 863.016724,692.648376 
	C863.043396,695.978699 863.037964,699.309509 863.012390,702.639893 
	C862.979248,706.945923 860.747375,709.022644 856.479187,709.019714 
	C848.152771,709.014038 839.826416,709.021240 831.000000,709.023071 
z"/>
<path fill="#F7F7F7" opacity="1.000000" stroke="none" 
	d="
M495.028107,377.134094 
	C495.324951,381.718292 495.324951,386.000610 495.324951,390.632843 
	C496.578308,390.208313 497.204407,390.030914 497.803955,389.787964 
	C505.427124,386.698700 512.099487,388.226532 515.471741,393.843475 
	C519.644470,400.793732 518.407288,411.517487 512.187134,415.632507 
	C509.424927,417.459930 505.432465,417.765289 501.940735,418.047333 
	C499.069672,418.279236 496.359558,414.445709 493.050629,417.836578 
	C492.256927,418.649933 489.919952,417.957336 488.003418,417.957336 
	C488.003418,404.147827 488.003418,390.719452 488.003418,376.832214 
	C490.243042,376.832214 492.487152,376.832214 495.028107,377.134094 
M505.042542,394.973297 
	C500.187378,393.936615 496.819275,395.830292 495.563995,400.530457 
	C494.517944,404.447296 495.351196,408.700348 499.103180,410.409149 
	C501.383148,411.447510 505.310059,410.852661 507.572906,409.474243 
	C510.855164,407.474792 511.023682,401.362213 508.658539,397.747314 
	C507.976593,396.705078 506.807159,395.981842 505.042542,394.973297 
z"/>
<path fill="#F7F7F7" opacity="1.000000" stroke="none" 
	d="
M663.484375,476.296326 
	C661.833557,475.562897 660.577637,474.869080 659.071350,474.036896 
	C653.210999,478.251709 646.888367,477.898865 642.218689,472.702515 
	C637.050781,466.951782 636.921936,456.356934 641.949097,450.535065 
	C646.656616,445.083344 653.305115,444.501617 658.900452,448.089722 
	C662.582642,447.384766 665.138245,446.895447 668.163391,446.316284 
	C668.163391,456.612305 668.163391,466.159821 668.163391,476.057648 
	C666.782227,476.147339 665.330811,476.241638 663.484375,476.296326 
M645.917480,462.273895 
	C646.238708,466.402924 648.417847,469.448303 652.440857,469.775635 
	C654.650146,469.955383 657.792542,468.645386 659.171143,466.928589 
	C661.844299,463.599670 661.866638,459.075684 659.143555,455.898193 
	C657.583923,454.078461 653.922974,452.917664 651.465149,453.267181 
	C647.399658,453.845398 645.790466,457.362518 645.917480,462.273895 
z"/>
<path fill="#F7F7F7" opacity="1.000000" stroke="none" 
	d="
M571.715149,448.867279 
	C574.613953,447.957062 577.237976,446.822632 580.725952,445.314667 
	C580.725952,456.532532 580.725952,466.050995 580.725952,476.604156 
	C577.636780,475.915863 574.904785,475.307159 571.044373,474.447021 
	C566.258301,478.182861 559.681519,477.961090 554.793335,472.731140 
	C549.528809,467.098572 549.271301,456.698242 554.247009,450.665619 
	C558.782654,445.166595 565.327332,444.396698 571.715149,448.867279 
M566.359802,452.925629 
	C559.260620,453.840027 555.713013,461.091431 560.033020,466.609436 
	C561.426880,468.389832 564.451111,469.830902 566.668762,469.750519 
	C568.656311,469.678467 571.304688,467.722412 572.356506,465.860382 
	C575.109558,460.986938 572.570618,455.361115 566.359802,452.925629 
z"/>
<path fill="#F5F5F5" opacity="1.000000" stroke="none" 
	d="
M500.271759,476.860077 
	C487.400696,475.611359 482.148987,462.191284 488.605011,452.440186 
	C492.328491,446.816345 499.420349,444.465057 505.742249,446.699036 
	C512.055115,448.929810 515.423279,455.077942 514.475403,463.227356 
	C507.824005,463.227356 501.096130,463.227356 494.243317,463.227356 
	C496.261108,470.250916 501.308136,471.600616 510.401642,467.721527 
	C511.346924,469.075470 512.342834,470.501923 513.420288,472.045197 
	C509.878296,476.058685 505.492310,477.015625 500.271759,476.860077 
M507.146820,456.896027 
	C505.513733,453.244812 502.430206,452.143646 498.977203,453.225281 
	C496.946564,453.861359 495.327057,455.809875 493.522614,457.168091 
	C493.843658,457.707886 494.164673,458.247681 494.485718,458.787476 
	C498.697235,458.437958 502.908722,458.088470 507.146820,456.896027 
z"/>
<path fill="#F6F6F6" opacity="1.000000" stroke="none" 
	d="
M726.880005,461.916016 
	C725.779358,471.761719 719.432800,477.495636 710.687439,476.961761 
	C701.759949,476.416779 695.807068,469.892639 695.910278,460.766388 
	C696.002625,452.603424 703.000916,445.980164 711.594177,445.923126 
	C720.353333,445.864990 726.243347,451.862610 726.880005,461.916016 
M703.989502,458.983154 
	C703.973206,460.475830 703.380371,462.343048 704.057495,463.385193 
	C705.587769,465.740479 707.406006,468.724182 709.749084,469.491119 
	C711.814514,470.167206 716.092896,468.900085 716.997314,467.209137 
	C718.460022,464.474274 718.821655,460.446228 717.976624,457.433136 
	C717.428589,455.479095 714.070557,453.527893 711.680786,453.059753 
	C708.094971,452.357330 705.386963,454.572479 703.989502,458.983154 
z"/>
<path fill="#F6F6F6" opacity="1.000000" stroke="none" 
	d="
M612.389404,463.716003 
	C612.697876,468.152985 614.582703,470.425812 618.809326,469.953400 
	C622.956360,469.489899 624.228455,466.875916 624.101135,462.965851 
	C623.929260,457.687531 624.058472,452.399353 624.058472,446.871460 
	C626.915344,446.871460 629.336304,446.871460 631.937622,446.871460 
	C631.937622,456.541016 631.937622,465.978241 631.937622,475.831573 
	C628.895630,475.790924 625.478088,478.076599 623.753906,473.246521 
	C622.490295,474.082520 621.318604,475.013611 620.015869,475.693359 
	C613.216309,479.241455 605.526855,475.457916 604.855774,467.719818 
	C604.269897,460.963287 604.733643,454.115692 604.733643,446.994690 
	C606.825684,446.994690 609.262451,446.994690 612.361267,446.994690 
	C612.361267,452.400909 612.361267,457.826904 612.389404,463.716003 
z"/>
<path fill="#F5F5F5" opacity="1.000000" stroke="none" 
	d="
M545.558777,417.945953 
	C544.363586,417.037140 543.588806,416.143707 542.636047,415.044952 
	C541.778320,415.617767 540.754395,416.396790 539.645752,417.026672 
	C532.169373,421.274475 524.363098,417.266937 523.911194,408.692291 
	C523.571350,402.243805 523.843994,395.763000 523.843994,388.876007 
	C526.121826,388.876007 528.479553,388.876007 531.621521,388.876007 
	C531.621521,394.151642 531.575806,399.421051 531.636780,404.689240 
	C531.680969,408.506561 532.664856,411.980682 537.341187,411.789520 
	C541.914612,411.602600 543.351929,408.550079 543.175842,404.221344 
	C542.967651,399.104095 543.126892,393.971893 543.126892,388.252106 
	C546.002319,388.430206 548.375305,388.577179 550.885254,388.732635 
	C550.885254,398.538239 550.885254,407.968689 550.885254,417.961304 
	C549.151245,417.961304 547.565247,417.961304 545.558777,417.945953 
z"/>
<path fill="#F3F4F4" opacity="1.000000" stroke="none" 
	d="
M667.174805,388.890045 
	C676.905457,386.508179 681.856506,390.100922 682.074646,399.454651 
	C682.202759,404.948883 682.109253,410.448547 682.089417,415.945648 
	C682.087708,416.417755 681.890259,416.889130 681.714905,417.666260 
	C679.462280,417.666260 677.206055,417.666260 674.255615,417.666260 
	C674.255615,412.133057 674.249878,406.517792 674.257690,400.902496 
	C674.262634,397.356171 673.238525,394.351135 669.105896,394.432220 
	C665.016296,394.512451 662.733887,396.866425 662.765625,401.172272 
	C662.805908,406.633362 662.775330,412.094971 662.775330,417.767639 
	C659.987732,417.767639 657.734131,417.767639 655.174561,417.767639 
	C655.174561,408.021179 655.174561,398.447205 655.174561,387.784454 
	C658.094727,388.471039 660.637695,389.068939 663.180664,389.666840 
	C663.094666,390.152893 663.008728,390.638947 662.922729,391.125000 
	C664.210999,390.419647 665.499329,389.714294 667.174805,388.890045 
z"/>
<path fill="#F5F5F5" opacity="1.000000" stroke="none" 
	d="
M757.953857,468.419952 
	C759.307373,468.355896 760.435852,468.519531 761.505615,468.864990 
	C763.227295,469.420990 764.942383,470.660065 766.600586,470.565399 
	C768.288574,470.469025 769.904541,469.109436 771.552063,468.303009 
	C770.343506,467.151733 769.319641,465.602570 767.885681,464.936798 
	C765.357605,463.763062 762.389587,463.487274 759.944092,462.195190 
	C754.451172,459.292969 753.973633,452.466400 758.752991,448.593750 
	C763.025513,445.131805 771.833984,444.923431 776.054749,448.482300 
	C776.947571,449.235107 777.617737,451.832458 777.138000,452.303131 
	C776.143494,453.278717 774.270508,453.869446 772.827271,453.755066 
	C770.761719,453.591309 768.773132,452.279938 766.721069,452.194763 
	C765.572632,452.147125 764.362549,453.585205 763.180298,454.353882 
	C764.062012,455.384949 764.746887,456.843353 765.866089,457.358856 
	C768.254089,458.458862 771.184570,458.595428 773.301758,460.010895 
	C775.563354,461.522919 778.718323,464.105072 778.651428,466.126312 
	C778.552490,469.113464 776.665466,472.960785 774.274719,474.768860 
	C768.596558,479.062988 760.071289,477.245575 754.611694,471.051971 
	C755.615112,470.297913 756.658752,469.513550 757.953857,468.419952 
z"/>
<path fill="#F6F6F6" opacity="1.000000" stroke="none" 
	d="
M533.739990,476.163635 
	C530.594238,476.844788 529.131287,475.734528 528.065796,473.135590 
	C524.543640,464.544586 520.794250,456.046722 516.920776,447.020691 
	C519.977051,447.020691 522.705994,447.020691 525.475098,447.020691 
	C527.736877,453.033234 529.995239,459.036560 532.645630,466.082214 
	C534.680237,460.867371 536.404785,456.619476 537.998108,452.322937 
	C540.345093,445.994049 540.305237,445.979279 548.073425,447.194916 
	C544.050598,456.503510 540.087158,465.732941 536.031006,474.921478 
	C535.777344,475.496155 534.798279,475.750610 533.739990,476.163635 
z"/>
<path fill="#F3F4F4" opacity="1.000000" stroke="none" 
	d="
M589.227173,390.408386 
	C590.949097,389.222626 592.612183,388.461578 594.795654,387.462341 
	C594.795654,385.894836 594.795654,383.626556 594.795654,381.015503 
	C597.491211,381.015503 599.876892,381.015503 602.646423,381.015503 
	C602.646423,383.393494 602.646423,385.637268 602.646423,388.227478 
	C604.736755,388.386108 606.493103,388.519379 608.570435,388.677002 
	C608.570435,390.630371 608.570435,392.515167 608.570435,394.784790 
	C607.038391,394.964478 605.299988,395.168396 602.899963,395.449890 
	C602.899963,402.718414 602.899963,410.084412 602.899963,417.701447 
	C600.002502,417.701447 597.763184,417.701447 595.159912,417.701447 
	C595.159912,410.358276 595.159912,403.101349 595.159912,395.599884 
	C592.292786,394.882904 587.968872,395.958557 589.227173,390.408386 
z"/>
<path fill="#F3F4F4" opacity="1.000000" stroke="none" 
	d="
M673.955566,453.238403 
	C673.574768,451.119385 673.471313,449.331390 673.350159,447.236633 
	C675.153381,446.986267 676.740967,446.765839 678.797546,446.480316 
	C678.927979,444.322357 679.064148,442.069946 679.227478,439.368347 
	C681.563477,439.368347 683.930481,439.368347 686.709900,439.368347 
	C686.867737,441.627960 687.034607,444.017761 687.214355,446.591827 
	C689.192688,446.703613 690.951599,446.802979 693.173462,446.928528 
	C693.051147,449.247589 692.943542,451.287354 692.826233,453.511597 
	C690.799622,453.638702 689.176453,453.740479 687.203735,453.864166 
	C687.203735,461.069336 687.203735,468.299927 687.203735,475.950653 
	C684.344055,475.950653 681.825256,475.950653 679.092896,475.950653 
	C679.092896,468.662903 679.092896,461.547607 679.092896,454.036133 
	C677.366333,453.870331 675.799622,453.719910 673.955566,453.238403 
z"/>
<path fill="#F6F6F6" opacity="1.000000" stroke="none" 
	d="
M582.820862,417.937958 
	C580.409607,418.005554 578.462402,418.005554 576.282104,418.005554 
	C576.282104,404.104004 576.282104,390.724060 576.282104,376.916748 
	C578.666199,376.916748 581.044861,376.916748 583.284851,376.916748 
	C583.284851,390.633575 583.284851,404.251953 582.820862,417.937958 
z"/>
<path fill="#F6F6F6" opacity="1.000000" stroke="none" 
	d="
M740.753296,464.153107 
	C740.749268,468.261444 740.749268,471.894440 740.749268,475.848145 
	C738.167236,475.848145 735.915100,475.848145 733.236938,475.848145 
	C733.236938,466.392151 733.236938,456.708954 733.236938,446.673859 
	C736.172058,447.110474 739.987000,444.661835 740.800842,449.072144 
	C744.488831,447.890503 748.253967,446.684113 752.019104,445.477722 
	C752.288208,445.975891 752.557312,446.474060 752.826355,446.972198 
	C752.012573,449.392487 751.198853,451.812775 750.395874,454.200897 
	C741.705872,454.681702 740.939880,455.443268 740.753296,464.153107 
z"/>
<path fill="#FBFBFA" opacity="1.000000" stroke="none" 
	d="
M588.857910,441.091217 
	C588.852905,438.826630 588.852905,437.049377 588.852905,435.082001 
	C591.519775,435.082001 593.619019,435.082001 596.163818,435.082001 
	C596.163818,448.637360 596.163818,462.118469 596.163818,475.882507 
	C593.809875,475.882507 591.571289,475.882507 588.862976,475.882507 
	C588.862976,464.369263 588.862976,452.973907 588.857910,441.091217 
z"/>
<path fill="#F0F0F0" opacity="1.000000" stroke="none" 
	d="
M643.607910,388.549622 
	C644.781372,389.360046 646.192566,390.132141 646.206909,390.929443 
	C646.365234,399.723389 646.306396,408.521240 646.306396,417.658630 
	C643.681763,417.658630 641.308960,417.658630 638.619263,417.658630 
	C638.619263,408.161896 638.619263,398.738007 638.619263,388.523041 
	C640.073486,388.523041 641.635254,388.523041 643.607910,388.549622 
z"/>
<path fill="#F6F6F6" opacity="1.000000" stroke="none" 
	d="
M567.427124,397.134003 
	C567.430420,404.240387 567.430420,410.866760 567.430420,417.757019 
	C564.865906,417.757019 562.604004,417.757019 560.039856,417.757019 
	C560.039856,408.154541 560.039856,398.581024 560.039856,388.689453 
	C562.326843,388.689453 564.553162,388.689453 567.423767,388.689453 
	C567.423767,391.453308 567.423767,394.053619 567.427124,397.134003 
z"/>
<path fill="#F7F7F7" opacity="1.000000" stroke="none" 
	d="
M617.705139,405.261566 
	C615.983643,405.268402 614.694641,405.268402 613.167603,405.268402 
	C613.167603,402.803314 613.167603,400.708679 613.167603,398.303986 
	C618.856750,398.303986 624.579102,398.303986 630.590942,398.303986 
	C630.590942,400.492706 630.590942,402.536530 630.590942,405.254730 
	C626.302429,405.254730 622.220032,405.254730 617.705139,405.261566 
z"/>
<path fill="#F6F6F6" opacity="1.000000" stroke="none" 
	d="
M639.508240,381.722595 
	C637.030029,379.063629 636.927002,376.358215 639.739685,374.831573 
	C641.226868,374.024384 644.082642,374.341034 645.515808,375.323792 
	C646.468994,375.977448 646.765503,379.720947 646.007507,380.292236 
	C644.444275,381.470398 641.978699,381.451111 639.508240,381.722595 
z"/>
<path fill="#F5F5F5" opacity="1.000000" stroke="none" 
	d="
M559.229858,376.489624 
	C560.437561,375.387360 561.761292,373.853302 562.488098,374.097260 
	C564.421509,374.746368 566.544373,375.847290 567.656494,377.427032 
	C568.101501,378.059265 566.214722,381.625092 565.177734,381.728241 
	C563.265198,381.918518 561.117371,380.686829 559.251343,379.700104 
	C558.815002,379.469391 559.113342,377.849335 559.229858,376.489624 
z"/>
<path fill="#FBFBFB" opacity="1.000000" stroke="none" 
	d="
M291.999939,636.151123 
	C259.731262,636.151184 227.962616,636.151184 194.680191,636.151184 
	C260.366913,568.109741 321.944489,497.884155 393.569824,437.348053 
	C393.569824,503.264313 393.569824,569.365479 393.569824,636.151123 
	C359.974091,636.151123 326.237000,636.151123 291.999939,636.151123 
M371.312988,595.499634 
	C371.312988,559.140137 371.312988,522.780701 371.312988,486.421204 
	C370.894012,486.236877 370.475037,486.052551 370.056061,485.868225 
	C328.948639,528.004578 287.841217,570.140930 245.926224,613.105042 
	C288.724335,613.105042 329.805878,613.105042 371.308380,613.105042 
	C371.308380,607.412476 371.308380,601.955994 371.312988,595.499634 
z"/>
<path fill="#262626" opacity="1.000000" stroke="none" 
	d="
M505.451904,395.042816 
	C506.807159,395.981842 507.976593,396.705078 508.658539,397.747314 
	C511.023682,401.362213 510.855164,407.474792 507.572906,409.474243 
	C505.310059,410.852661 501.383148,411.447510 499.103180,410.409149 
	C495.351196,408.700348 494.517944,404.447296 495.563995,400.530457 
	C496.819275,395.830292 500.187378,393.936615 505.451904,395.042816 
z"/>
<path fill="#262626" opacity="1.000000" stroke="none" 
	d="
M645.908447,461.862793 
	C645.790466,457.362518 647.399658,453.845398 651.465149,453.267181 
	C653.922974,452.917664 657.583923,454.078461 659.143555,455.898193 
	C661.866638,459.075684 661.844299,463.599670 659.171143,466.928589 
	C657.792542,468.645386 654.650146,469.955383 652.440857,469.775635 
	C648.417847,469.448303 646.238708,466.402924 645.908447,461.862793 
z"/>
<path fill="#262626" opacity="1.000000" stroke="none" 
	d="
M566.759644,452.959290 
	C572.570618,455.361115 575.109558,460.986938 572.356506,465.860382 
	C571.304688,467.722412 568.656311,469.678467 566.668762,469.750519 
	C564.451111,469.830902 561.426880,468.389832 560.033020,466.609436 
	C555.713013,461.091431 559.260620,453.840027 566.759644,452.959290 
z"/>
<path fill="#262626" opacity="1.000000" stroke="none" 
	d="
M507.133545,457.317505 
	C502.908722,458.088470 498.697235,458.437958 494.485718,458.787476 
	C494.164673,458.247681 493.843658,457.707886 493.522614,457.168091 
	C495.327057,455.809875 496.946564,453.861359 498.977203,453.225281 
	C502.430206,452.143646 505.513733,453.244812 507.133545,457.317505 
z"/>
<path fill="#262626" opacity="1.000000" stroke="none" 
	d="
M704.069092,458.578918 
	C705.386963,454.572479 708.094971,452.357330 711.680786,453.059753 
	C714.070557,453.527893 717.428589,455.479095 717.976624,457.433136 
	C718.821655,460.446228 718.460022,464.474274 716.997314,467.209137 
	C716.092896,468.900085 711.814514,470.167206 709.749084,469.491119 
	C707.406006,468.724182 705.587769,465.740479 704.057495,463.385193 
	C703.380371,462.343048 703.973206,460.475830 704.069092,458.578918 
z"/>
<path fill="#010101" opacity="1.000000" stroke="none" 
	d="
M371.310669,595.999573 
	C371.308380,601.955994 371.308380,607.412476 371.308380,613.105042 
	C329.805878,613.105042 288.724335,613.105042 245.926224,613.105042 
	C287.841217,570.140930 328.948639,528.004578 370.056061,485.868225 
	C370.475037,486.052551 370.894012,486.236877 371.312988,486.421204 
	C371.312988,522.780701 371.312988,559.140137 371.310669,595.999573 
z"/>
</svg>